# xmcd
#
# Track frame offsets:
#	150
#	16428
#	36281
#	48217
#	70787
#	95796
#	112967
#	131325
#	145592
#	162847
#	182790
#	193452
#	211717
#
# Disc length: 3017 seconds
#
# Revision: 1
# Processed by: cddbd v1.5.2PL0 Copyright (c) Steve Scherf et al.
# Submitted via: audiograbber 1.83.01
#
DISCID=b30bc70d
DTITLE=Beata Kossowskas  Blue Airtrain - Beata Kossowskas  Blue Airtrain
DYEAR=1900
DGENRE=rock
TTITLE0=Airtrain Boogie
TTITLE1=Rattlesnake Shake
TTITLE2=Rollin' N Tumblin
TTITLE3=It Came Out Of The Swamp
TTITLE4=Angel
TTITLE5=Don't Tell Me
TTITLE6=The Mafia Stole My Guitar
TTITLE7=Misirlou
TTITLE8=Railroad Worksong
TTITLE9=Hoochie Coochie Girl
TTITLE10=Wild Wild West
TTITLE11=Oh Well
TTITLE12=Albatross
EXTD=
EXTT0=
EXTT1=
EXTT2=
EXTT3=
EXTT4=
EXTT5=
EXTT6=
EXTT7=
EXTT8=
EXTT9=
EXTT10=
EXTT11=
EXTT12=
PLAYORDER=
